<svg width="50" height="50" viewBox="0 0 50 50" fill="none" xmlns="http://www.w3.org/2000/svg">
<g id="icon">
<path id="Vector" d="M34.5313 31.5625H34.8047C35.1953 31.5625 35.4688 31.25 35.4688 30.8984C35.4688 30.5078 35.1563 30.2344 34.8047 30.2344H34.5313C34.1406 30.2344 33.8672 30.5469 33.8672 30.8984C33.8672 31.2891 34.1797 31.5625 34.5313 31.5625Z" fill="white"/>
<path id="Vector_2" d="M37.4219 33.0469H37.6953C38.0859 33.0469 38.3594 32.7344 38.3594 32.3828C38.3594 32.0312 38.0469 31.7188 37.6953 31.7188H37.4219C37.0313 31.7188 36.7578 32.0312 36.7578 32.3828C36.7578 32.7344 37.0703 33.0469 37.4219 33.0469Z" fill="white"/>
<path id="Vector_3" d="M35.1953 33.3594C34.8047 33.3594 34.5312 33.6719 34.5312 34.0234C34.5312 34.375 34.8437 34.6875 35.1953 34.6875H35.4688C35.8594 34.6875 36.1328 34.375 36.1328 34.0234C36.1328 33.6719 35.8203 33.3594 35.4688 33.3594H35.1953Z" fill="white"/>
<path id="Vector_4" d="M41.2891 35.8203C42.1094 32.3438 39.9609 28.8281 36.4844 28.0078C33.0469 27.1875 29.5703 29.2969 28.7109 32.7344C25.7422 31.9531 22.7344 31.5234 19.6484 31.4844V23.7891L37.5391 15.6641C37.8906 15.5078 38.0469 15.1172 37.8906 14.7656C37.8125 14.6094 37.6953 14.4922 37.5391 14.4141L19.6484 6.28906V4.45312H19.8828C21.0938 4.45312 22.1094 3.4375 22.1094 2.22656C22.1094 1.01563 21.0938 0 19.8828 0H14.2188C13.0078 0 11.9922 1.01563 11.9922 2.22656C11.9922 3.4375 13.0078 4.45312 14.2188 4.45312H14.4531V31.7578C5.89844 32.7344 0 36.3672 0 40.6641C0 45.8203 8.35938 49.8438 19.0625 49.8438C25.6641 49.8438 31.8359 48.2031 35.2734 45.5469C36.25 45.6641 37.1875 45.7031 38.1641 45.7031C44.6875 45.7031 49.6094 43.5156 49.6094 40.6641C49.6094 38.3203 46.2891 36.4062 41.2891 35.8203ZM19.6484 7.77344L35.625 15.0391L19.6484 22.3047V7.77344ZM35 29.1797C37.8516 29.1797 40.1172 31.4844 40.1172 34.2969C40.1172 37.1484 37.8125 39.4141 35 39.4141C32.1484 39.4141 29.8828 37.1094 29.8828 34.2969C29.8438 31.4844 32.1484 29.2188 35 29.1797ZM9.84375 40.6641C9.84375 39.8438 11.6016 38.75 14.4531 38.3203V43.0078C11.5625 42.5781 9.84375 41.4844 9.84375 40.6641ZM19.6484 38.3203C22.5 38.75 24.2578 39.8047 24.2578 40.6641C24.2578 41.5234 22.5 42.5781 19.6484 43.0078V38.3203ZM13.3594 2.22656C13.3594 1.75781 13.75 1.36719 14.2188 1.36719H19.8828C20.3516 1.36719 20.7422 1.75781 20.7422 2.22656C20.7422 2.69531 20.3516 3.08594 19.8828 3.08594H14.2188C13.75 3.08594 13.3594 2.69531 13.3594 2.22656ZM18.3203 4.45312V43.1641C17.5 43.2031 16.6406 43.2031 15.8203 43.1641V4.45312H18.3203ZM38.1641 44.3359C37.1484 44.3359 36.1719 44.2578 35.1562 44.1406C34.9609 44.1016 34.8047 44.1797 34.6484 44.2969C31.5234 46.875 25.5469 48.4766 19.0625 48.4766C9.45312 48.4766 1.36719 44.8828 1.36719 40.625C1.36719 37.1094 6.83594 33.9844 14.4141 33.0469V36.9141C10.7813 37.4219 8.4375 38.8281 8.4375 40.625C8.4375 42.5 10.9766 43.9844 14.9609 44.4141H15C15.6641 44.4922 16.3281 44.5312 16.9922 44.5312C17.6562 44.5312 18.3203 44.4922 18.9844 44.4141H19.0234C23.0078 43.9844 25.5469 42.5 25.5469 40.625C25.5469 38.8281 23.2422 37.4219 19.5703 36.9141V32.8125C22.5781 32.8516 25.5469 33.2422 28.3984 34.0625V34.3359C28.3984 37.9297 31.2891 40.8203 34.8828 40.8203C37.3828 40.8203 39.6875 39.375 40.7422 37.1094C45.3906 37.6172 48.1641 39.2578 48.1641 40.6641C48.2422 42.4219 44.1016 44.3359 38.1641 44.3359Z" fill="white"/>
</g>
</svg>
