<svg width="50" height="50" viewBox="0 0 50 50" fill="none" xmlns="http://www.w3.org/2000/svg">
<g id="icon">
<path id="Vector" d="M43.7264 21.241L49.9052 2.22694L48.5106 1.77364L46.4834 8.01163L40.7645 6.15685L42.7367 0.481364L41.3516 0L35.9156 15.6432C35.7139 16.2444 35.263 16.7418 34.646 17.0438C33.989 17.3652 33.2342 17.4171 32.5753 17.1864C28.9475 15.9149 22.4804 14.3122 16.2108 13.5973C8.82383 12.7553 4.06698 13.3504 2.07241 15.3664C0.54884 16.9062 -0.157565 19.2063 0.0294475 22.018C0.328198 26.5086 2.8625 31.5585 6.05569 34.0256C7.68601 35.2854 10.7306 35.9232 15.1096 35.9232C15.258 35.9232 15.4082 35.9224 15.5596 35.9211C18.9381 35.8884 23.1279 35.4763 27.4231 34.758C27.9669 36.5607 28.9498 38.2073 30.3054 39.5564V43.6457L34.9979 45.6009V50H36.4642V44.6233L31.7718 42.6681V40.5663H45.067V42.6681L40.3746 44.6233V50H41.841V45.6009L46.5334 43.6457V39.5564C48.6904 37.4096 49.9061 34.5102 49.9061 31.4258C49.9059 27.0054 47.3957 23.1609 43.7264 21.241ZM27.0895 33.3275C19.1791 34.6425 9.95079 35.1823 6.95224 32.8652C4.10863 30.668 1.76154 25.9629 1.4926 21.9206C1.38223 20.2607 1.57404 17.955 3.11481 16.3977C4.73018 14.7649 9.32201 14.2875 16.0447 15.0543C22.2014 15.7562 28.5398 17.3259 32.0905 18.5703C33.1174 18.9301 34.2838 18.8538 35.2906 18.3608C36.2628 17.8851 36.9785 17.0855 37.3034 16.1169L40.2832 7.54219L46.0305 9.40615L42.3791 20.6426C41.1442 20.1877 39.8103 19.9391 38.4194 19.9391C32.0856 19.9391 26.9328 25.0919 26.9328 31.4257C26.9326 32.0695 26.986 32.705 27.0895 33.3275ZM44.8611 39.0998H31.9774C29.7001 37.1881 28.399 34.4059 28.399 31.4257C28.399 25.9005 32.8941 21.4055 38.4193 21.4055C43.9445 21.4055 48.4396 25.9005 48.4396 31.4257C48.4395 34.4059 47.1384 37.1881 44.8611 39.0998Z" fill="white"/>
<path id="Vector_2" d="M32.8475 27.6458H34.3139V29.1121H32.8475V27.6458Z" fill="white"/>
<path id="Vector_3" d="M37.832 27.6458H39.2984V29.1121H37.832V27.6458Z" fill="white"/>
<path id="Vector_4" d="M42.8182 27.6458H44.2846V29.1121H42.8182V27.6458Z" fill="white"/>
<path id="Vector_5" d="M32.8475 35.3362H34.3139V36.8026H32.8475V35.3362Z" fill="white"/>
<path id="Vector_6" d="M37.832 35.3362H39.2984V36.8026H37.832V35.3362Z" fill="white"/>
<path id="Vector_7" d="M42.8182 35.3362H44.2846V36.8026H42.8182V35.3362Z" fill="white"/>
<path id="Vector_8" d="M35.3887 23.8005H36.8551V25.2669H35.3887V23.8005Z" fill="white"/>
<path id="Vector_9" d="M40.373 23.8005H41.8394V25.2669H40.373V23.8005Z" fill="white"/>
<path id="Vector_10" d="M30.4033 31.491H31.8697V32.9573H30.4033V31.491Z" fill="white"/>
<path id="Vector_11" d="M35.3887 31.491H36.8551V32.9573H35.3887V31.491Z" fill="white"/>
<path id="Vector_12" d="M40.373 31.491H41.8394V32.9573H40.373V31.491Z" fill="white"/>
<path id="Vector_13" d="M45.3594 31.491H46.8258V32.9573H45.3594V31.491Z" fill="white"/>
<path id="Vector_14" d="M13.7345 19.157H15.2009V20.6234H13.7345V19.157Z" fill="white"/>
<path id="Vector_15" d="M16.668 19.157H18.1344V20.6234H16.668V19.157Z" fill="white"/>
<path id="Vector_16" d="M4.05679 19.157H12.2685V20.6234H4.05679V19.157Z" fill="white"/>
<path id="Vector_17" d="M19.6016 19.157H22.241V20.6234H19.6016V19.157Z" fill="white"/>
<path id="Vector_18" d="M4.05679 23.165H21.1646V24.6314H4.05679V23.165Z" fill="white"/>
<path id="Vector_19" d="M22.631 23.165H24.0974V24.6314H22.631V23.165Z" fill="white"/>
<path id="Vector_20" d="M17.8398 27.1731H19.3062V28.6395H17.8398V27.1731Z" fill="white"/>
<path id="Vector_21" d="M6.01367 27.1731H16.3761V28.6395H6.01367V27.1731Z" fill="white"/>
<path id="Vector_22" d="M20.7734 27.1731H22.2398V28.6395H20.7734V27.1731Z" fill="white"/>
</g>
</svg>
