<svg width="32" height="50" viewBox="0 0 32 50" fill="none" xmlns="http://www.w3.org/2000/svg">
<g id="icon">
<g id="Group">
<g id="Group_2">
<path id="Vector" d="M31.1794 11.9426C29.4002 4.91848 23.0788 -0.000878262 15.8327 5.26525e-07C8.60024 -0.00185469 2.28663 4.89915 0.494878 11.9061C-1.29687 18.9131 1.88903 26.2433 8.23447 29.7135C8.23339 29.7416 8.22549 29.7674 8.22549 29.7959C8.22549 31.3399 9.69297 33.7131 12.0596 34.8527C12.569 35.1802 13.4986 38.247 13.3746 47.5031C13.3592 48.3909 13.8245 49.2177 14.5913 49.6653C15.3582 50.1129 16.3069 50.1115 17.0724 49.6614C17.8379 49.2114 18.3006 48.3831 18.2824 47.4954C18.1168 38.2421 19.027 35.1794 19.5274 34.8547C21.903 33.7107 23.3733 31.3384 23.3733 29.796C23.3733 29.7804 23.3688 29.7666 23.3685 29.7511C29.7411 26.3022 32.9585 18.9668 31.1794 11.9426ZM18.8072 33.3517C18.1445 33.6674 16.3832 34.5063 16.6164 47.5336C16.6227 47.7405 16.5444 47.9411 16.3995 48.089C16.0832 48.395 15.5815 48.3958 15.2644 48.0906C15.1168 47.9417 15.0362 47.7392 15.041 47.5296C15.2155 34.5105 13.4486 33.6687 12.7866 33.3535C11.5831 32.7733 10.6244 31.7852 10.0808 30.5649C13.7473 32.0181 17.8281 32.0288 21.5022 30.595C20.9539 31.8007 20.0003 32.7762 18.8072 33.3517ZM15.8327 29.996C8.00969 29.996 1.66787 23.6542 1.66787 15.8312C1.66787 8.00821 8.00969 1.66648 15.8327 1.66648C23.6556 1.66648 29.9975 8.00821 29.9975 15.8312C29.9888 23.6506 23.6521 29.9873 15.8327 29.996Z" fill="white"/>
<path id="Vector_2" d="M6.15054 20.897C5.84023 20.7664 5.48178 20.8356 5.24246 21.0724C4.92024 21.4009 4.92024 21.9269 5.24246 22.2555C5.28308 22.2934 5.3277 22.3269 5.37545 22.3552C5.41802 22.3882 5.46587 22.4137 5.51703 22.4305C5.56439 22.4544 5.61497 22.4713 5.66721 22.4806C5.72238 22.4902 5.77813 22.4958 5.83408 22.4973C5.94334 22.5001 6.05173 22.4773 6.15064 22.4306C6.25151 22.3882 6.34456 22.329 6.4257 22.2556C6.74792 21.927 6.74792 21.401 6.4257 21.0725C6.34456 20.9987 6.25151 20.9393 6.15054 20.897Z" fill="white"/>
<path id="Vector_3" d="M9.75782 22.7387C9.71593 22.7054 9.67443 22.672 9.63293 22.6387C9.58645 22.607 9.53597 22.5817 9.48276 22.5634C9.4355 22.5393 9.38492 22.5227 9.33268 22.5138C9.0584 22.4589 8.77465 22.5432 8.57467 22.7387C8.42235 22.8984 8.33603 23.1097 8.33301 23.3304C8.33428 23.3862 8.33984 23.4418 8.34971 23.4967C8.35859 23.549 8.37539 23.5996 8.39931 23.6468C8.41766 23.6999 8.44295 23.7505 8.47459 23.797C8.50789 23.8385 8.54128 23.88 8.57467 23.9219C8.73442 24.074 8.94572 24.1602 9.16629 24.1635C9.22205 24.162 9.2777 24.1564 9.33268 24.1468C9.38492 24.1376 9.4355 24.1207 9.48285 24.0968C9.53597 24.0785 9.58655 24.0531 9.63303 24.0215C9.72374 23.9644 9.80049 23.8876 9.85761 23.7969C9.88925 23.7504 9.91453 23.6999 9.93289 23.6467C9.95681 23.5994 9.97371 23.5488 9.98298 23.4965C9.99255 23.4416 9.99812 23.3859 9.99968 23.3302C9.99626 23.1097 9.90995 22.8985 9.75782 22.7387Z" fill="white"/>
<path id="Vector_4" d="M13.0918 23.5718C13.0121 23.4965 12.9188 23.4369 12.8167 23.3965C12.6137 23.3135 12.3862 23.3135 12.1833 23.3965C12.0825 23.4389 11.9896 23.4981 11.9087 23.5718C11.5864 23.9004 11.5864 24.4264 11.9087 24.755C11.9897 24.8284 12.0826 24.8876 12.1833 24.93C12.3852 25.0189 12.615 25.0189 12.8167 24.93C12.9176 24.8876 13.0107 24.8284 13.0918 24.755C13.4139 24.4264 13.4139 23.9004 13.0918 23.5718Z" fill="white"/>
<path id="Vector_5" d="M11.3 25.9715C11.2535 25.9398 11.2031 25.9146 11.1498 25.8962C11.1026 25.8722 11.052 25.8555 10.9997 25.8466C10.7253 25.7906 10.4411 25.8749 10.2417 26.0716C10.0894 26.2312 10.0031 26.4425 10 26.6631C10.0013 26.7189 10.0069 26.7745 10.0167 26.8295C10.0256 26.8817 10.0424 26.9323 10.0663 26.9797C10.0846 27.0328 10.1099 27.0833 10.1416 27.1298C10.1749 27.1713 10.2083 27.2128 10.2417 27.2547C10.4014 27.4068 10.6127 27.4931 10.8332 27.4964C10.8889 27.4948 10.9446 27.4892 10.9996 27.4797C11.0518 27.4704 11.1024 27.4535 11.1497 27.4297C11.2029 27.4113 11.2534 27.386 11.2999 27.3544C11.3414 27.3215 11.3829 27.2881 11.4248 27.2547C11.4581 27.2128 11.4915 27.1713 11.5245 27.1298C11.5561 27.0833 11.5814 27.0329 11.5998 26.9797C11.6237 26.9323 11.6406 26.8817 11.6499 26.8295C11.6594 26.7745 11.665 26.7188 11.6666 26.6631C11.6634 26.4425 11.577 26.2313 11.4249 26.0715C11.3854 26.0357 11.3436 26.0023 11.3 25.9715Z" fill="white"/>
<path id="Vector_6" d="M14.7579 26.9048C14.716 26.8715 14.6745 26.8381 14.633 26.8047C14.5866 26.7731 14.5361 26.7478 14.4829 26.7295C14.4356 26.7054 14.385 26.6887 14.3327 26.6799C14.0583 26.6238 13.7741 26.7082 13.5747 26.9048C13.5011 26.9857 13.4417 27.0786 13.3993 27.1795C13.3566 27.2798 13.3341 27.3875 13.333 27.4964C13.3361 27.717 13.4224 27.9283 13.5747 28.0881C13.6141 28.124 13.6558 28.1573 13.6996 28.1878C13.7459 28.2193 13.7963 28.2446 13.8492 28.263C13.8966 28.287 13.9472 28.3039 13.9994 28.3131C14.0546 28.3223 14.1103 28.3279 14.1663 28.3298C14.222 28.3283 14.2777 28.3227 14.3327 28.3131C14.3849 28.3039 14.4355 28.287 14.4829 28.263C14.536 28.2447 14.5866 28.2194 14.633 28.1878C14.6767 28.1571 14.7184 28.1238 14.7579 28.0881C14.9099 27.9282 14.9962 27.717 14.9996 27.4964C14.9983 27.3875 14.9757 27.2798 14.9329 27.1795C14.8905 27.0787 14.8313 26.9859 14.7579 26.9048Z" fill="white"/>
<path id="Vector_7" d="M18.0907 26.9049C18.0097 26.8313 17.9167 26.7719 17.8157 26.7295C17.5054 26.5989 17.1469 26.6681 16.9075 26.9049C16.8339 26.9857 16.7745 27.0787 16.7321 27.1796C16.6895 27.2798 16.667 27.3875 16.6658 27.4965C16.6658 27.9567 17.0388 28.3297 17.499 28.3297C17.9592 28.3297 18.3322 27.9567 18.3322 27.4965C18.3309 27.3875 18.3083 27.2798 18.2655 27.1796C18.2232 27.0788 18.1641 26.9859 18.0907 26.9049Z" fill="white"/>
<path id="Vector_8" d="M21.2981 25.9715C21.2516 25.9398 21.2011 25.9146 21.1479 25.8962C21.1006 25.8722 21.0501 25.8555 20.9977 25.8466C20.7233 25.7906 20.4391 25.8749 20.2397 26.0716C20.0875 26.2312 20.0012 26.4425 19.998 26.6631C19.9993 26.7189 20.0049 26.7745 20.0147 26.8295C20.0236 26.8817 20.0404 26.9323 20.0643 26.9797C20.0827 27.0328 20.108 27.0833 20.1396 27.1298C20.1729 27.1713 20.2063 27.2128 20.2397 27.2547C20.3995 27.4068 20.6108 27.4931 20.8313 27.4964C20.8871 27.4948 20.9427 27.4892 20.9977 27.4797C21.05 27.4704 21.1005 27.4535 21.1479 27.4297C21.201 27.4113 21.2516 27.386 21.2981 27.3544C21.3396 27.3215 21.3811 27.2881 21.423 27.2547C21.4562 27.2128 21.4896 27.1713 21.5226 27.1298C21.5543 27.0833 21.5796 27.0329 21.5979 26.9797C21.6219 26.9323 21.6387 26.8817 21.648 26.8295C21.6576 26.7745 21.6632 26.7188 21.6647 26.6631C21.6615 26.4425 21.5752 26.2313 21.4231 26.0715C21.3834 26.0357 21.3416 26.0023 21.2981 25.9715Z" fill="white"/>
<path id="Vector_9" d="M16.4241 23.572C16.2127 23.3606 15.9048 23.278 15.616 23.3555C15.3273 23.4328 15.1019 23.6584 15.0244 23.9471C14.9471 24.2358 15.0296 24.5439 15.241 24.7552C15.2804 24.7911 15.3221 24.8244 15.3659 24.8549C15.4123 24.8864 15.4626 24.9117 15.5156 24.9302C15.5629 24.9541 15.6135 24.971 15.6657 24.9802C15.7209 24.9894 15.7767 24.995 15.8326 24.9968C15.8884 24.9953 15.944 24.9897 15.999 24.9801C16.0512 24.9709 16.1018 24.954 16.1491 24.9301C16.2022 24.9118 16.2528 24.8864 16.2993 24.8548C16.3429 24.8241 16.3846 24.7908 16.4241 24.7551C16.7464 24.4266 16.7464 23.9005 16.4241 23.572Z" fill="white"/>
<path id="Vector_10" d="M19.757 23.5719C19.7151 23.5385 19.6736 23.5051 19.6321 23.4717C19.5856 23.4401 19.5351 23.4148 19.4819 23.3964C19.4347 23.3724 19.3841 23.3557 19.3317 23.3468C19.0576 23.295 18.7753 23.3788 18.5737 23.5718C18.5404 23.6133 18.507 23.6548 18.4737 23.7049C18.4407 23.7475 18.4152 23.7953 18.3984 23.8465C18.3744 23.8937 18.3577 23.9443 18.3488 23.9967C18.3394 24.0518 18.3338 24.1076 18.3321 24.1635C18.3299 24.3852 18.417 24.5983 18.5737 24.7551C18.7305 24.9118 18.9436 24.9989 19.1653 24.9967C19.221 24.9952 19.2767 24.9896 19.3316 24.98C19.3839 24.9707 19.4345 24.9539 19.4818 24.9299C19.5349 24.9117 19.5855 24.8863 19.632 24.8546C19.6756 24.824 19.7173 24.7907 19.7569 24.755C20.0792 24.4265 20.0792 23.9004 19.757 23.5719Z" fill="white"/>
<path id="Vector_11" d="M22.9651 22.6387C22.9186 22.6071 22.8681 22.5818 22.8149 22.5634C22.7676 22.5394 22.717 22.5227 22.6647 22.5138C22.3903 22.4578 22.1061 22.5422 21.9067 22.7388C21.7545 22.8985 21.6682 23.1098 21.665 23.3303C21.6663 23.3862 21.672 23.4417 21.6817 23.4967C21.6906 23.549 21.7074 23.5995 21.7313 23.6468C21.7496 23.6999 21.775 23.7505 21.8066 23.797C21.8399 23.8385 21.8733 23.88 21.9067 23.9219C22.0664 24.074 22.2777 24.1602 22.4982 24.1635C22.554 24.162 22.6096 24.1564 22.6646 24.1468C22.7169 24.1375 22.7674 24.1207 22.8148 24.0967C22.8679 24.0785 22.9185 24.0531 22.965 24.0214C23.0557 23.9643 23.1324 23.8876 23.1895 23.7969C23.2212 23.7504 23.2465 23.6999 23.2648 23.6467C23.2887 23.5993 23.3056 23.5488 23.3149 23.4965C23.3245 23.4415 23.3301 23.3859 23.3316 23.3301C23.3284 23.1096 23.2421 22.8984 23.0899 22.7385C23.0481 22.7054 23.0066 22.6721 22.9651 22.6387Z" fill="white"/>
<path id="Vector_12" d="M26.1479 20.8968C25.9467 20.8052 25.7156 20.8053 25.5144 20.8968C25.4135 20.9392 25.3207 20.9984 25.2397 21.0721C25.0875 21.2318 25.0012 21.4431 24.998 21.6638C24.9994 21.7196 25.005 21.7752 25.0147 21.8302C25.0236 21.8824 25.0404 21.933 25.0643 21.9803C25.0826 22.0334 25.108 22.084 25.1396 22.1305C25.1729 22.172 25.2063 22.2135 25.2397 22.2554C25.3208 22.3288 25.4136 22.388 25.5144 22.4304C25.7162 22.5193 25.9461 22.5193 26.1478 22.4304C26.2487 22.388 26.3417 22.3288 26.4229 22.2554C26.4562 22.2135 26.4895 22.172 26.5226 22.1305C26.5542 22.084 26.5795 22.0335 26.5978 21.9803C26.6218 21.933 26.6386 21.8824 26.6479 21.8302C26.6575 21.7752 26.6631 21.7195 26.6646 21.6638C26.6614 21.4432 26.5751 21.232 26.423 21.0721C26.3419 20.9985 26.249 20.9392 26.1479 20.8968Z" fill="white"/>
<path id="Vector_13" d="M4.75898 16.906C4.51555 16.6768 4.16179 16.6086 3.8505 16.7306C3.74964 16.773 3.65668 16.8323 3.57583 16.906C3.42361 17.0656 3.33729 17.2769 3.33417 17.4976C3.33534 17.6065 3.35789 17.714 3.40047 17.8142C3.47663 18.0232 3.64135 18.1879 3.85041 18.2641C3.95069 18.3069 4.05839 18.3295 4.16736 18.3309C4.38793 18.3276 4.59913 18.2413 4.75898 18.0892C4.8324 18.0081 4.89158 17.9151 4.93395 17.8142C4.97662 17.714 4.99928 17.6065 5.00064 17.4976C4.99742 17.277 4.9111 17.0658 4.75898 16.906Z" fill="white"/>
<path id="Vector_14" d="M8.26766 18.8471C8.1915 18.6381 8.02677 18.4734 7.81772 18.3972C7.61472 18.3142 7.38721 18.3142 7.18431 18.3972C6.97545 18.4738 6.81092 18.6383 6.73437 18.8471C6.6917 18.9474 6.66914 19.0551 6.66797 19.1641C6.67109 19.3847 6.75741 19.596 6.90963 19.7557C6.99068 19.8291 7.08354 19.8883 7.18431 19.9307C7.38613 20.0196 7.61599 20.0196 7.81772 19.9307C7.91858 19.8883 8.01164 19.8291 8.09278 19.7557C8.24481 19.5959 8.33112 19.3847 8.33444 19.1641C8.33308 19.055 8.31042 18.9474 8.26766 18.8471Z" fill="white"/>
<path id="Vector_15" d="M28.0891 16.9061C28.008 16.8324 27.9151 16.7731 27.814 16.7307C27.662 16.6644 27.4929 16.647 27.3307 16.6811C27.2784 16.69 27.2278 16.7068 27.1805 16.7307C27.1275 16.749 27.0772 16.7744 27.0308 16.806C26.9871 16.8366 26.9453 16.87 26.9059 16.9061C26.7537 17.0657 26.6674 17.277 26.6642 17.4977C26.6654 17.6065 26.688 17.714 26.7305 17.8142C26.7729 17.9152 26.8322 18.0082 26.9059 18.0893C27.0657 18.2414 27.277 18.3276 27.4975 18.331C27.6064 18.3296 27.7139 18.3069 27.8141 18.2643C28.0233 18.1884 28.1882 18.0236 28.264 17.8143C28.3068 17.7141 28.3295 17.6066 28.3308 17.4978C28.3274 17.2771 28.2411 17.0659 28.0891 16.9061Z" fill="white"/>
<path id="Vector_16" d="M24.9317 18.8471C24.8556 18.6381 24.6908 18.4734 24.4818 18.3972C24.2788 18.3142 24.0513 18.3142 23.8484 18.3972C23.6395 18.4738 23.475 18.6383 23.3984 18.8471C23.3558 18.9474 23.3332 19.0551 23.332 19.1641C23.3352 19.3847 23.4215 19.596 23.5737 19.7557C23.6547 19.8291 23.7476 19.8883 23.8484 19.9307C24.0502 20.0196 24.28 20.0196 24.4818 19.9307C24.5826 19.8883 24.6757 19.8291 24.7568 19.7557C24.9089 19.5959 24.9952 19.3847 24.9985 19.1641C24.9971 19.055 24.9745 18.9474 24.9317 18.8471Z" fill="white"/>
<path id="Vector_17" d="M10.2416 20.5888C10.3227 20.6622 10.4155 20.7214 10.5163 20.7638C10.7181 20.8527 10.948 20.8527 11.1497 20.7638C11.3589 20.6879 11.5238 20.5231 11.5996 20.3138C11.6886 20.112 11.6886 19.8821 11.5996 19.6804C11.5235 19.4713 11.3588 19.3066 11.1497 19.2305C10.9467 19.1475 10.7192 19.1475 10.5163 19.2305C10.3074 19.307 10.1429 19.4715 10.0663 19.6804C9.97788 19.8823 9.97788 20.112 10.0663 20.3138C10.1086 20.4148 10.168 20.5077 10.2416 20.5888Z" fill="white"/>
<path id="Vector_18" d="M14.1655 21.6639C14.3871 21.666 14.6003 21.5789 14.757 21.4222C14.9137 21.2655 15.0008 21.0524 14.9986 20.8307C14.9972 20.7748 14.9916 20.719 14.9819 20.6639C14.9727 20.6117 14.9558 20.5611 14.9319 20.5138C14.9151 20.4626 14.8896 20.4147 14.8566 20.3722C14.8283 20.3243 14.7949 20.2797 14.7569 20.2391C14.4228 19.9307 13.9079 19.9307 13.5737 20.2391C13.5404 20.2806 13.507 20.3221 13.4737 20.3722C13.4406 20.4147 13.4152 20.4626 13.3984 20.5138C13.3743 20.561 13.3577 20.6116 13.3488 20.6639C13.3389 20.719 13.3333 20.7748 13.3321 20.8308C13.3299 21.0524 13.417 21.2656 13.5737 21.4223C13.7305 21.579 13.9438 21.666 14.1655 21.6639Z" fill="white"/>
<path id="Vector_19" d="M17.4993 21.6639C17.7209 21.666 17.9341 21.5789 18.0908 21.4222C18.2475 21.2655 18.3346 21.0524 18.3324 20.8307C18.331 20.7748 18.3254 20.719 18.3157 20.6639C18.3065 20.6117 18.2896 20.5611 18.2657 20.5138C18.2489 20.4626 18.2234 20.4147 18.1904 20.3722C18.1621 20.3243 18.1287 20.2797 18.0907 20.2391C17.7566 19.9307 17.2417 19.9307 16.9075 20.2391C16.8695 20.2797 16.836 20.3243 16.8075 20.3722C16.7745 20.4147 16.749 20.4626 16.7322 20.5138C16.7081 20.561 16.6915 20.6116 16.6826 20.6639C16.6727 20.719 16.6671 20.7748 16.6659 20.8308C16.6637 21.0524 16.7508 21.2656 16.9075 21.4223C17.0645 21.5789 17.2776 21.666 17.4993 21.6639Z" fill="white"/>
<path id="Vector_20" d="M20.2408 20.589C20.4006 20.7411 20.6119 20.8274 20.8324 20.8307C20.9413 20.8293 21.0488 20.8067 21.149 20.764C21.2509 20.7236 21.3442 20.6642 21.4241 20.589C21.4975 20.5079 21.5567 20.4148 21.599 20.314C21.688 20.1121 21.688 19.8823 21.599 19.6805C21.5567 19.5798 21.4975 19.4869 21.4241 19.4059C21.3444 19.3305 21.251 19.2709 21.149 19.2305C20.8387 19.0999 20.4802 19.1691 20.2409 19.4059C20.1673 19.4867 20.1079 19.5797 20.0656 19.6805C19.9771 19.8825 19.9771 20.1121 20.0656 20.314C20.1078 20.4149 20.1671 20.508 20.2408 20.589Z" fill="white"/>
</g>
</g>
</g>
</svg>
