<svg width="50" height="50" viewBox="0 0 50 50" fill="none" xmlns="http://www.w3.org/2000/svg">
<g id="icon">
<path id="Vector" d="M48.3333 42.5H31.8192C31.87 42.4808 31.9258 42.4633 31.9767 42.4442C34.56 41.4442 36.615 39.4017 38.2492 36.2142C40.1366 32.2135 41.294 27.9078 41.6667 23.5L43.775 17.1742C43.8777 16.8663 43.9027 16.5377 43.8476 16.2178C43.7925 15.8979 43.659 15.5966 43.4592 15.3408L48.1667 1.91667C48.2431 1.69947 48.2662 1.46712 48.2342 1.23911C48.2022 1.01111 48.116 0.794112 47.9827 0.606341C47.8495 0.418569 47.6732 0.265505 47.4685 0.159999C47.2639 0.0544926 47.0369 -0.000375256 46.8067 1.93163e-06H44.5567C44.2586 8.04769e-05 43.9678 0.092837 43.7248 0.26543C43.4817 0.438022 43.2983 0.681913 43.2 0.963335L38.7625 13.6375C38.4098 13.6797 38.0752 13.8174 37.795 14.0358C37.5148 14.2542 37.2996 14.5449 37.1725 14.8767L34.715 21.2792C33.1875 21.0292 31.4467 20.7792 29.5717 20.5683C28.9828 18.7084 27.8158 17.0848 26.2406 15.9338C24.6653 14.7828 22.7639 14.1644 20.8129 14.1686C18.8619 14.1728 16.9632 14.7993 15.3929 15.9571C13.8226 17.1148 12.6626 18.7434 12.0817 20.6058C8.40632 21.1193 4.80159 22.0506 1.3375 23.3817C0.82141 23.5937 0.408127 23.9982 0.185216 24.5097C-0.0376936 25.0212 -0.0527156 25.5993 0.143333 26.1217L3.71833 35.8133C4.79551 38.7595 6.99095 41.1622 9.82833 42.5H1.66667C1.22464 42.5 0.800716 42.6756 0.488155 42.9882C0.175595 43.3007 0 43.7246 0 44.1667L0 48.3333C0 48.7754 0.175595 49.1993 0.488155 49.5119C0.800716 49.8244 1.22464 50 1.66667 50H48.3333C48.7754 50 49.1993 49.8244 49.5118 49.5119C49.8244 49.1993 50 48.7754 50 48.3333V44.1667C50 43.7246 49.8244 43.3007 49.5118 42.9882C49.1993 42.6756 48.7754 42.5 48.3333 42.5ZM19.9208 42.5L18.9017 32.2908C20.1743 32.5697 21.4923 32.5697 22.765 32.2908L21.75 42.5H19.9208ZM44.72 1.66667H46.4842L41.9842 14.5L40.4075 13.9742L44.72 1.66667ZM38.73 15.4725C38.7577 15.4007 38.8122 15.3425 38.882 15.31C38.9517 15.2775 39.0314 15.2733 39.1042 15.2983L42.0008 16.265C42.0389 16.2776 42.0742 16.2977 42.1045 16.324C42.1348 16.3503 42.1596 16.3824 42.1775 16.4183C42.1953 16.4531 42.2059 16.4911 42.2087 16.53C42.2116 16.5689 42.2067 16.608 42.1942 16.645L40.2925 22.35C39.5142 22.1742 38.16 21.885 36.39 21.5667L38.73 15.4725ZM39.945 23.9792C39.5413 27.956 38.4666 31.8356 36.7667 35.4533C35.3067 38.3008 33.5933 40.0283 31.3717 40.89C28.8149 41.7779 26.1391 42.2763 23.4342 42.3683L23.6667 40H24.1717C24.3927 40 24.6046 39.9122 24.7609 39.7559C24.9172 39.5996 25.005 39.3877 25.005 39.1667C25.005 38.9457 24.9172 38.7337 24.7609 38.5774C24.6046 38.4211 24.3927 38.3333 24.1717 38.3333H23.8333L24.4925 31.7308C25.4562 31.3081 26.34 30.7226 27.105 30H34.175C34.396 30 34.608 29.9122 34.7643 29.7559C34.9205 29.5996 35.0083 29.3877 35.0083 29.1667C35.0083 28.9457 34.9205 28.7337 34.7643 28.5774C34.608 28.4211 34.396 28.3333 34.175 28.3333H28.5083C28.8502 27.8086 29.1373 27.2501 29.365 26.6667H35.0083C35.2293 26.6667 35.4413 26.5789 35.5976 26.4226C35.7539 26.2663 35.8417 26.0543 35.8417 25.8333C35.8417 25.6123 35.7539 25.4004 35.5976 25.2441C35.4413 25.0878 35.2293 25 35.0083 25H29.8417C29.9452 24.4504 29.9982 23.8926 30 23.3333C29.9985 22.9832 29.977 22.6335 29.9358 22.2858C34.6783 22.8492 38.45 23.6417 39.945 23.9792ZM20.8333 15.8333C22.3167 15.8333 23.7667 16.2732 25.0001 17.0973C26.2335 17.9214 27.1948 19.0928 27.7624 20.4632C28.3301 21.8337 28.4786 23.3417 28.1892 24.7965C27.8998 26.2514 27.1855 27.5877 26.1366 28.6366C25.0877 29.6855 23.7514 30.3998 22.2965 30.6892C20.8417 30.9786 19.3337 30.8301 17.9632 30.2624C16.5928 29.6948 15.4214 28.7335 14.5973 27.5001C13.7732 26.2667 13.3333 24.8167 13.3333 23.3333C13.3355 21.3449 14.1264 19.4385 15.5325 18.0325C16.9385 16.6264 18.8449 15.8355 20.8333 15.8333ZM5.2825 35.2367L1.705 25.54C1.66119 25.4208 1.66558 25.2891 1.71723 25.173C1.76889 25.057 1.86374 24.9656 1.98167 24.9183C5.12511 23.7093 8.39112 22.847 11.7217 22.3467C11.6225 23.2313 11.6576 24.1259 11.8258 25H6.675C6.45399 25 6.24202 25.0878 6.08574 25.2441C5.92946 25.4004 5.84167 25.6123 5.84167 25.8333C5.84167 26.0543 5.92946 26.2663 6.08574 26.4226C6.24202 26.5789 6.45399 26.6667 6.675 26.6667H12.3033C12.5311 27.2501 12.8181 27.8086 13.16 28.3333H7.50833C7.28732 28.3333 7.07536 28.4211 6.91908 28.5774C6.7628 28.7337 6.675 28.9457 6.675 29.1667C6.675 29.3877 6.7628 29.5996 6.91908 29.7559C7.07536 29.9122 7.28732 30 7.50833 30H14.5617C15.3257 30.7223 16.2083 31.3078 17.1708 31.7308L18.2425 42.465C16.8105 42.3789 15.3855 42.2022 13.9758 41.9358C13.6558 41.8808 13.3592 41.8283 13.0933 41.7867C11.3293 41.4811 9.67743 40.7142 8.3056 39.5638C6.93376 38.4134 5.89076 36.9205 5.2825 35.2367ZM1.66667 48.3333V44.1667H48.3333V48.3333H1.66667Z" fill="white"/>
<path id="Vector_2" d="M16.7117 23.3333C16.7117 23.1123 16.6239 22.9004 16.4676 22.7441C16.3114 22.5878 16.0994 22.5 15.8784 22.5H15.8334C15.725 22.5003 15.6178 22.5222 15.5181 22.5645C15.4183 22.6067 15.328 22.6685 15.2524 22.7461C15.1768 22.8237 15.1175 22.9156 15.0779 23.0165C15.0383 23.1173 15.0192 23.225 15.0217 23.3333C15.0267 23.5568 15.1193 23.7694 15.2796 23.9253C15.4398 24.0811 15.6548 24.1678 15.8784 24.1667C16.0994 24.1667 16.3114 24.0789 16.4676 23.9226C16.6239 23.7663 16.7117 23.5543 16.7117 23.3333Z" fill="white"/>
<path id="Vector_3" d="M19.0835 23.8451C19.2055 23.8461 19.3263 23.8202 19.4372 23.7694C19.5481 23.7185 19.6466 23.6439 19.7255 23.5509C19.8044 23.4578 19.862 23.3486 19.8941 23.2308C19.9261 23.1131 19.932 22.9898 19.9111 22.8695C19.8903 22.7493 19.8433 22.6351 19.7735 22.535C19.7037 22.4349 19.6127 22.3514 19.5071 22.2903C19.4014 22.2293 19.2836 22.1921 19.1621 22.1816C19.0405 22.171 18.9181 22.1873 18.8035 22.2293L18.7635 22.2434C18.6619 22.2811 18.5688 22.3387 18.4897 22.4128C18.4106 22.4869 18.347 22.576 18.3027 22.6749C18.2584 22.7738 18.2343 22.8805 18.2317 22.9889C18.2291 23.0972 18.2481 23.205 18.2877 23.3059C18.3495 23.4662 18.4589 23.6038 18.6011 23.7002C18.7434 23.7965 18.9117 23.8471 19.0835 23.8451Z" fill="white"/>
<path id="Vector_4" d="M21.0299 25.8858L21.0682 25.9033C21.1753 25.9539 21.2922 25.9804 21.4107 25.9808C21.5693 25.9799 21.7242 25.9334 21.8572 25.847C21.9901 25.7606 22.0955 25.6378 22.1607 25.4933C22.2511 25.2897 22.2582 25.0587 22.1803 24.85C22.1024 24.6412 21.9458 24.4713 21.744 24.3766C21.5446 24.2874 21.318 24.28 21.1132 24.3562C20.9083 24.4324 20.7416 24.586 20.649 24.7839C20.5563 24.9818 20.5451 25.2082 20.6177 25.4143C20.6904 25.6204 20.8411 25.7898 21.0374 25.8858H21.0299Z" fill="white"/>
<path id="Vector_5" d="M16.7245 27.4424C16.8014 27.5183 16.8925 27.5782 16.9926 27.6189C17.0927 27.6595 17.1998 27.6799 17.3078 27.679C17.537 27.68 17.7573 27.5901 17.9203 27.429C17.9978 27.3516 18.0592 27.2596 18.1011 27.1584C18.1429 27.0572 18.1645 26.9487 18.1644 26.8392C18.1644 26.7296 18.1428 26.6212 18.1008 26.52C18.0589 26.4188 17.9974 26.3269 17.9199 26.2495C17.8425 26.172 17.7505 26.1106 17.6493 26.0687C17.5481 26.0269 17.4396 26.0053 17.3301 26.0054C17.2205 26.0054 17.1121 26.027 17.0109 26.069C16.9097 26.1109 16.8178 26.1724 16.7403 26.2499L16.7095 26.2807C16.6334 26.3575 16.5734 26.4487 16.5329 26.549C16.4924 26.6493 16.4723 26.7566 16.4737 26.8647C16.4751 26.9728 16.498 27.0796 16.5411 27.1787C16.5841 27.2779 16.6465 27.3675 16.7245 27.4424Z" fill="white"/>
<path id="Vector_6" d="M20.8333 29.1451C21.0568 29.1401 21.2694 29.0475 21.4253 28.8872C21.5811 28.727 21.6678 28.5119 21.6667 28.2884C21.6667 28.0674 21.5789 27.8554 21.4226 27.6992C21.2663 27.5429 21.0543 27.4551 20.8333 27.4551C20.6123 27.4551 20.4004 27.5429 20.2441 27.6992C20.0878 27.8554 20 28.0674 20 28.2884V28.3334C20.0003 28.4418 20.0222 28.5489 20.0645 28.6487C20.1067 28.7485 20.1685 28.8388 20.2461 28.9144C20.3237 28.99 20.4156 29.0493 20.5165 29.0889C20.6173 29.1285 20.725 29.1476 20.8333 29.1451Z" fill="white"/>
<path id="Vector_7" d="M15.8428 32.5001C15.8428 32.2791 15.755 32.0671 15.5987 31.9108C15.4424 31.7545 15.2305 31.6667 15.0094 31.6667H9.17611C8.95509 31.6667 8.74313 31.7545 8.58685 31.9108C8.43057 32.0671 8.34277 32.2791 8.34277 32.5001C8.34277 32.7211 8.43057 32.9331 8.58685 33.0893C8.74313 33.2456 8.95509 33.3334 9.17611 33.3334H15.0094C15.2305 33.3334 15.4424 33.2456 15.5987 33.0893C15.755 32.9331 15.8428 32.7211 15.8428 32.5001Z" fill="white"/>
<path id="Vector_8" d="M14.9996 35.8333C14.9996 35.6123 14.9118 35.4004 14.7555 35.2441C14.5993 35.0878 14.3873 35 14.1663 35H10.8421C10.6211 35 10.4091 35.0878 10.2529 35.2441C10.0966 35.4004 10.0088 35.6123 10.0088 35.8333C10.0088 36.0543 10.0966 36.2663 10.2529 36.4226C10.4091 36.5789 10.6211 36.6667 10.8421 36.6667H14.1663C14.3873 36.6667 14.5993 36.5789 14.7555 36.4226C14.9118 36.2663 14.9996 36.0543 14.9996 35.8333Z" fill="white"/>
<path id="Vector_9" d="M32.5094 31.6667H26.6761C26.4551 31.6667 26.2431 31.7545 26.0869 31.9108C25.9306 32.0671 25.8428 32.2791 25.8428 32.5001C25.8428 32.7211 25.9306 32.9331 26.0869 33.0893C26.2431 33.2456 26.4551 33.3334 26.6761 33.3334H32.5094C32.7305 33.3334 32.9424 33.2456 33.0987 33.0893C33.255 32.9331 33.3428 32.7211 33.3428 32.5001C33.3428 32.2791 33.255 32.0671 33.0987 31.9108C32.9424 31.7545 32.7305 31.6667 32.5094 31.6667Z" fill="white"/>
<path id="Vector_10" d="M30.8428 35H26.6761C26.4551 35 26.2431 35.0878 26.0869 35.2441C25.9306 35.4004 25.8428 35.6123 25.8428 35.8333C25.8428 36.0543 25.9306 36.2663 26.0869 36.4226C26.2431 36.5789 26.4551 36.6667 26.6761 36.6667H30.8428C31.0638 36.6667 31.2757 36.5789 31.432 36.4226C31.5883 36.2663 31.6761 36.0543 31.6761 35.8333C31.6761 35.6123 31.5883 35.4004 31.432 35.2441C31.2757 35.0878 31.0638 35 30.8428 35Z" fill="white"/>
</g>
</svg>
